<svg xmlns="http://www.w3.org/2000/svg" viewBox="0 0 48 48" width="48" height="48">
  <!-- Fondo circular -->
  <circle cx="24" cy="24" r="22" fill="#F5F1EB"/>
  
  <!-- Bolsa de papel/tela -->
  <path d="M12 18 L12 40 Q12 42 14 42 L34 42 Q36 42 36 40 L36 18 Z" fill="#D4C4B0" stroke="#2D3E2F" stroke-width="1.5"/>
  
  <!-- Asas de la bolsa -->
  <path d="M17 18 Q17 10 24 10 Q31 10 31 18" stroke="#2D3E2F" stroke-width="2.5" fill="none" stroke-linecap="round"/>
  
  <!-- Tarros asomando de la bolsa -->
  <rect x="15" y="22" width="7" height="12" rx="1" fill="#4A5D4B"/>
  <rect x="14" y="20" width="9" height="3" rx="0.5" fill="#2D3E2F"/>
  
  <rect x="26" y="24" width="6" height="10" rx="1" fill="#C17F59"/>
  <rect x="25" y="22" width="8" height="3" rx="0.5" fill="#8B5A3C"/>
  
  <!-- Flecha circular pequeña (símbolo retorno) -->
  <circle cx="30" cy="38" r="3" fill="none" stroke="#2D3E2F" stroke-width="1.2"/>
  <path d="M28.5 36.5 L30 35 L31.5 36.5" stroke="#2D3E2F" stroke-width="1.2" fill="none" stroke-linecap="round" stroke-linejoin="round"/>
</svg>
