<svg xmlns="http://www.w3.org/2000/svg" width="1600" height="900" viewBox="0 0 1600 900">
  <defs>
    <linearGradient id="g" x1="0" y1="0" x2="1" y2="1">
      <stop offset="0" stop-color="#1F4B3F"/>
      <stop offset="1" stop-color="#2e6b55"/>
    </linearGradient>
  </defs>
  <rect width="1600" height="900" fill="#F6F4EF"/>
  <g transform="translate(120,100)">
    <rect x="0" y="0" width="1360" height="700" rx="28" fill="#fff" stroke="#d9e2dc" stroke-width="4"/>
    <g transform="translate(60,60)">
      <circle cx="220" cy="220" r="160" fill="none" stroke="#b6c9c0" stroke-width="12"/>
      <path d="M340 340 L470 470" stroke="#1F4B3F" stroke-width="18" stroke-linecap="round"/>
      <circle cx="220" cy="220" r="90" fill="#e7f0ec" stroke="#2e6b55" stroke-width="8"/>
      <g fill="#1F4B3F">
        <circle cx="220" cy="140" r="8"/>
        <circle cx="140" cy="220" r="8"/>
        <circle cx="300" cy="220" r="8"/>
        <circle cx="220" cy="300" r="8"/>
      </g>
      <g transform="translate(560,20)">
        <rect x="0" y="0" width="540" height="120" rx="16" fill="#fff" stroke="#e6eee9"/>
        <text x="24" y="46" font-family="Nunito, Arial" font-size="30" fill="#1F4B3F" font-weight="700">Diagnóstico 3D</text>
        <text x="24" y="84" font-family="Manrope, Arial" font-size="22" fill="#56756c">Ilustración de KPIs y ciclo circular</text>
      </g>
      <g transform="translate(560,170)">
        <rect x="0" y="0" width="540" height="180" rx="16" fill="#fff" stroke="#e6eee9"/>
        <g transform="translate(24,24)" font-family="Manrope, Arial" font-size="22" fill="#1F4B3F">
          <text y="0">• Piloto en 30–60 días</text>
          <text y="44">• KPIs auditables</text>
          <text y="88">• Activos listos para publicar</text>
        </g>
      </g>
      <g transform="translate(560,380)">
        <rect x="0" y="0" width="260" height="90" rx="18" fill="url(#g)"/>
        <text x="20" y="58" font-family="Manrope, Arial" font-size="22" fill="#fff" font-weight="700">Reserva tu Diagnóstico</text>
        <rect x="280" y="0" width="260" height="90" rx="18" fill="#fff" stroke="#2e6b55"/>
        <text x="302" y="58" font-family="Manrope, Arial" font-size="22" fill="#2e6b55" font-weight="700">Escríbenos por email</text>
      </g>
    </g>
  </g>
</svg>
