<svg xmlns="http://www.w3.org/2000/svg" width="1600" height="900" viewBox="0 0 1600 900">
  <rect width="1600" height="900" fill="#F6F4EF"/>
  <g transform="translate(120,120)">
    <rect x="0" y="0" width="1360" height="660" rx="28" fill="#fff" stroke="#d9e2dc" stroke-width="4"/>
    <g transform="translate(60,60)">
      <rect x="0" y="0" width="1240" height="80" rx="16" fill="#e9f1ed"/>
      <g fill="#1F4B3F">
        <circle cx="40" cy="40" r="8"/>
        <circle cx="80" cy="40" r="8"/>
        <circle cx="120" cy="40" r="8"/>
      </g>
      <g transform="translate(0,120)">
        <rect x="0" y="0" width="1240" height="420" rx="16" fill="#fff" stroke="#e6eee9"/>
        <g transform="translate(24,24)" font-family="Manrope, Arial" font-size="22" fill="#1F4B3F">
          <text y="0">Hitos</text>
          <circle cx="140" cy="220" r="10" fill="#2e6b55"/>
          <circle cx="420" cy="160" r="10" fill="#2e6b55"/>
          <circle cx="780" cy="260" r="10" fill="#2e6b55"/>
          <circle cx="1060" cy="120" r="10" fill="#2e6b55"/>
          <path d="M140 220 L420 160 L780 260 L1060 120" stroke="#2e6b55" stroke-width="6" fill="none"/>
        </g>
      </g>
      <g transform="translate(0,560)">
        <rect x="0" y="0" width="380" height="60" rx="16" fill="#1F4B3F"/>
        <text x="24" y="40" font-family="Manrope, Arial" font-size="22" fill="#fff" font-weight="700">Empezar mi Roadmap</text>
        <rect x="420" y="0" width="420" height="60" rx="16" fill="#fff" stroke="#2e6b55"/>
        <text x="444" y="40" font-family="Manrope, Arial" font-size="22" fill="#2e6b55" font-weight="700">Ver ejemplo de entregable</text>
      </g>
    </g>
  </g>
</svg>
