<svg xmlns="http://www.w3.org/2000/svg" width="1600" height="900" viewBox="0 0 1600 900">
  <rect width="1600" height="900" fill="#F6F4EF"/>
  <g transform="translate(120,100)">
    <rect x="0" y="0" width="1360" height="700" rx="28" fill="#fff" stroke="#d9e2dc" stroke-width="4"/>
    <g transform="translate(60,60)">
      <!-- Cohete -->
      <g transform="translate(180,60)">
        <path d="M120 220 L160 120 L200 220 Z" fill="#1F4B3F"/>
        <rect x="140" y="220" width="40" height="140" rx="12" fill="#2e6b55"/>
        <circle cx="160" cy="170" r="16" fill="#F6F4EF"/>
        <path d="M160 360 C140 380, 120 400, 160 420 C200 440, 180 460, 160 480" stroke="#e6eee9" stroke-width="10" fill="none"/>
      </g>
      <!-- Checklist -->
      <g transform="translate(520,20)">
        <rect x="0" y="0" width="640" height="520" rx="20" fill="#fff" stroke="#e6eee9"/>
        <g transform="translate(28,32)" font-family="Manrope, Arial" font-size="24" fill="#1F4B3F">
          <text y="0" font-weight="700">Sprint 3D</text>
          <g transform="translate(0,50)">
            <rect x="0" y="0" width="560" height="70" rx="12" fill="#f4f8f6"/>
            <text x="16" y="46">Piloto operativo con fotos antes/después</text>
          </g>
          <g transform="translate(0,140)">
            <rect x="0" y="0" width="560" height="70" rx="12" fill="#f4f8f6"/>
            <text x="16" y="46">Landing + caso + ficha + 3 creativos + 1 email</text>
          </g>
          <g transform="translate(0,230)">
            <rect x="0" y="0" width="560" height="70" rx="12" fill="#f4f8f6"/>
            <text x="16" y="46">KPIs de operación y de mercado</text>
          </g>
        </g>
      </g>
    </g>
  </g>
</svg>
